# This file uses centimeters as units for non-parametric coordinates.

mtllib desert ground-obj.mtl
g default
v -51.471329 1.524528 51.471329
v 51.471329 1.524528 51.471329
v -51.471329 1.524528 -51.471329
v 51.471329 1.524528 -51.471329
vt 0.001992 0.001992
vt 0.998008 0.001992
vt 0.001992 0.998008
vt 0.998008 0.998008
vn 0.000000 1.000000 0.000000
vn 0.000000 1.000000 0.000000
vn 0.000000 1.000000 0.000000
vn 0.000000 1.000000 0.000000
s off
g ground
usemtl aiStandardSurface10SG
f 1/1/1 2/2/2 4/4/3 3/3/4
